<svg width="113" height="60" viewBox="0 0 113 60" fill="none" xmlns="http://www.w3.org/2000/svg">
<path fill-rule="evenodd" clip-rule="evenodd" d="M13 37.8C15.5052 37.8 17.7346 36.6189 19.1617 34.7832C19.2119 34.7187 19.2887 34.68 19.3705 34.68H24.7531C24.9357 34.68 25.0611 34.8634 24.9904 35.0317C23.0237 39.7128 18.3957 43 13 43C5.8203 43 0 37.1797 0 30C0 22.8203 5.8203 17 13 17C20.1797 17 26 22.8203 26 30C26 30.6319 25.9549 31.2532 25.8678 31.861C25.8497 31.9874 25.7406 32.08 25.613 32.08H8.57296C8.40513 32.08 8.32122 32.08 8.25396 32.0328C8.1867 31.9855 8.16007 31.9117 8.10682 31.7639C7.90823 31.2132 7.8 30.6192 7.8 30C7.8 29.3808 7.90823 28.7868 8.10682 28.2361C8.16007 28.0883 8.1867 28.0145 8.25396 27.9672C8.32122 27.92 8.40513 27.92 8.57296 27.92H20.1781C20.3499 27.92 20.4745 27.7563 20.4215 27.5929C19.4071 24.463 16.4678 22.2 13 22.2C9.53218 22.2 6.59293 24.463 5.57851 27.5929C5.33278 28.351 5.2 29.16 5.2 30C5.2 30.84 5.33278 31.649 5.57851 32.4071C6.59293 35.537 9.53218 37.8 13 37.8ZM41.9898 17.2892C41.9898 17.1406 41.8651 17.022 41.7169 17.0324C37.6204 17.3204 34.0477 19.5069 31.8728 22.7177C31.7894 22.8409 31.8298 23.0082 31.9587 23.0826L36.0278 25.4319C36.1448 25.4995 36.2937 25.4658 36.3742 25.3573C37.6287 23.6661 39.5512 22.5003 41.7516 22.2503C41.886 22.235 41.9898 22.1228 41.9898 21.9875V17.2892ZM43.5286 22.2499C43.3941 22.2346 43.2898 22.1224 43.2898 21.9871V17.26C43.2898 17.1164 43.4062 17 43.5498 17H55.38C55.5236 17 55.64 17.1164 55.64 17.26V19.6013C55.64 20.8595 54.7459 21.9088 53.5584 22.1486C53.3483 22.191 53.2237 22.4459 53.3455 22.6223C54.7925 24.7183 55.64 27.2602 55.64 30C55.64 34.33 53.5234 38.1655 50.2685 40.5281C50.0952 40.6539 50.1299 40.9266 50.3317 40.9981L55.4668 42.8168C55.5706 42.8536 55.6403 42.9523 55.6387 43.0624C55.5396 50.0288 49.8351 56 42.6418 56C36.4263 56 31.2297 51.6368 29.9471 45.8059C29.9162 45.6654 30.0082 45.5278 30.1494 45.5001L34.7429 44.5994C34.8833 44.5719 35.0192 44.6633 35.0521 44.8025C35.8655 48.2413 38.9549 50.8 42.6418 50.8C45.6697 50.8 48.2946 49.0742 49.5868 46.5524C49.6567 46.4159 49.5874 46.2509 49.4424 46.2007C48.2846 45.7997 47.0481 45.4273 45.7802 45.0455C45.0184 44.8161 44.2453 44.5832 43.4711 44.3387C43.3631 44.3047 43.2898 44.2044 43.2898 44.0912V38.0129C43.2898 37.8776 43.3941 37.7653 43.5286 37.7501C47.4182 37.3098 50.4407 34.0079 50.4407 30C50.4407 25.9921 47.4182 22.6902 43.5286 22.2499ZM36.0575 34.5509C36.174 34.4836 36.3222 34.5166 36.4029 34.6242C37.6697 36.3132 39.5952 37.4903 41.7527 37.7472C41.8866 37.7632 41.9898 37.8752 41.9898 38.01V43.491C41.9898 43.6691 41.8147 43.7945 41.6464 43.7359C37.8717 42.4218 34.2642 40.6713 32.0321 37.5121C31.9781 37.4359 31.925 37.3592 31.8727 37.282C31.7894 37.1588 31.8299 36.9917 31.9586 36.9173L36.0575 34.5509ZM35.3768 26.5572C35.4939 26.6248 35.5392 26.7707 35.4853 26.8948C35.072 27.8463 34.8428 28.8964 34.8428 30C34.8428 31.0942 35.0794 32.1411 35.5024 33.0927C35.5577 33.217 35.5127 33.3643 35.3948 33.4323L31.3097 35.7909C31.1809 35.8653 31.0157 35.8167 30.9508 35.6828C30.0956 33.9193 29.6403 31.9666 29.64 30.0018C29.64 30.0008 29.6408 30 29.6418 30C29.6427 30 29.6435 29.9992 29.6435 29.9982C29.6438 27.9604 30.1129 26.0322 30.9488 24.3155C31.0139 24.1819 31.1788 24.1335 31.3075 24.2078L35.3768 26.5572ZM80.08 30C80.08 34.3078 76.5878 37.8 72.28 37.8C67.9722 37.8 64.48 34.3078 64.48 30C64.48 25.6922 67.9722 22.2 72.28 22.2C76.5878 22.2 80.08 25.6922 80.08 30ZM85.28 30C85.28 37.1797 79.4597 43 72.28 43C65.1003 43 59.28 37.1797 59.28 30C59.28 22.8203 65.1003 17 72.28 17C79.4597 17 85.28 22.8203 85.28 30ZM107.018 17C106.911 17 106.815 17.065 106.776 17.1641L99.4409 35.6465C99.3974 35.7559 99.2426 35.7559 99.1992 35.6465L91.8639 17.1641C91.8245 17.065 91.7287 17 91.6221 17H86.5673C86.3928 17 86.2733 17.176 86.3377 17.3381L96.4573 42.8359C96.4966 42.935 96.5924 43 96.699 43H101.941C102.048 43 102.143 42.935 102.183 42.8359L112.302 17.3381C112.367 17.176 112.247 17 112.073 17H107.018Z" fill="#1F1F1F"/>
<path fill-rule="evenodd" clip-rule="evenodd" d="M36.3744 25.3573C36.2939 25.4659 36.1449 25.4995 36.0279 25.4319L31.9588 23.0826C31.83 23.0083 31.7895 22.8409 31.873 22.7178C34.0478 19.5069 37.6206 17.3204 41.7171 17.0324C41.8654 17.022 41.9901 17.1406 41.9901 17.2892V21.9875C41.9901 22.1227 41.8862 22.235 41.7518 22.2502C39.5514 22.5003 37.6288 23.6661 36.3744 25.3573Z" fill="#263E6E"/>
<path fill-rule="evenodd" clip-rule="evenodd" d="M35.5024 33.0928C35.5576 33.2171 35.5126 33.3644 35.3948 33.4324L31.3097 35.791C31.1808 35.8654 31.0157 35.8168 30.9507 35.6829C30.0955 33.9194 29.6402 31.9667 29.6399 30.0018C29.6399 30.0008 29.6407 30 29.6417 30C29.6426 30 29.6434 29.9992 29.6434 29.9982C29.6437 27.9604 30.1128 26.0321 30.9487 24.3154C31.0138 24.1818 31.1787 24.1334 31.3074 24.2077L35.3767 26.5571C35.4938 26.6248 35.5391 26.7707 35.4852 26.8947C35.0719 27.8463 34.8427 28.8964 34.8427 30C34.8427 31.0943 35.0793 32.1412 35.5024 33.0928Z" fill="#F3D329"/>
<path fill-rule="evenodd" clip-rule="evenodd" d="M41.7528 37.7471C41.8868 37.7631 41.99 37.8751 41.99 38.0099V43.4909C41.99 43.6691 41.8148 43.7944 41.6465 43.7359C37.8718 42.4217 34.2643 40.6712 32.0321 37.512C31.9782 37.4359 31.9251 37.3593 31.8729 37.2821C31.7895 37.1589 31.8301 36.9918 31.9588 36.9175L36.0577 34.551C36.1741 34.4837 36.3223 34.5167 36.4031 34.6243C37.6699 36.3132 39.5954 37.4902 41.7528 37.7471Z" fill="#3640E8"/>
<path fill-rule="evenodd" clip-rule="evenodd" d="M84.89 45.6001C84.8182 45.6001 84.76 45.6583 84.76 45.7301V52.1001C84.76 54.254 86.5061 56.0001 88.66 56.0001C90.8139 56.0001 92.56 54.254 92.56 52.1001C92.56 49.9462 90.8139 48.2001 88.66 48.2001C87.8753 48.2001 87.1448 48.4318 86.5331 48.8306C86.4433 48.8891 86.32 48.8267 86.32 48.7196V45.7301C86.32 45.6583 86.2618 45.6001 86.19 45.6001H84.89ZM86.32 52.1001C86.32 53.3924 87.3676 54.4401 88.66 54.4401C89.9523 54.4401 91 53.3924 91 52.1001C91 50.8078 89.9523 49.7601 88.66 49.7601C87.3676 49.7601 86.32 50.8078 86.32 52.1001ZM95.42 45.7301C95.42 45.6583 95.3618 45.6001 95.29 45.6001H93.99C93.9182 45.6001 93.86 45.6583 93.86 45.7301V47.0301C93.86 47.1019 93.9182 47.1601 93.99 47.1601H95.29C95.3618 47.1601 95.42 47.1019 95.42 47.0301V45.7301ZM103.48 54.4401C104.232 54.4401 104.9 54.0858 105.328 53.5351C105.344 53.5157 105.367 53.5041 105.391 53.5041H107.006C107.061 53.5041 107.098 53.5591 107.077 53.6096C106.487 55.0139 105.099 56.0001 103.48 56.0001C101.326 56.0001 99.58 54.254 99.58 52.1001C99.58 49.9462 101.326 48.2001 103.48 48.2001C105.634 48.2001 107.38 49.9462 107.38 52.1001C107.38 52.2897 107.366 52.4761 107.34 52.6584C107.335 52.6963 107.302 52.7241 107.264 52.7241H102.152C102.102 52.7241 102.076 52.7241 102.056 52.7099C102.036 52.6958 102.028 52.6736 102.012 52.6293C101.952 52.464 101.92 52.2859 101.92 52.1001C101.92 51.9143 101.952 51.7361 102.012 51.5709C102.028 51.5266 102.036 51.5044 102.056 51.4903C102.076 51.4761 102.102 51.4761 102.152 51.4761H105.633C105.685 51.4761 105.722 51.427 105.706 51.378C105.402 50.439 104.52 49.7601 103.48 49.7601C102.44 49.7601 101.558 50.439 101.254 51.378C101.18 51.6054 101.14 51.8481 101.14 52.1001C101.14 52.3521 101.18 52.5948 101.254 52.8222C101.558 53.7612 102.44 54.4401 103.48 54.4401ZM96.72 45.7301C96.72 45.6583 96.7782 45.6001 96.85 45.6001H98.15C98.2218 45.6001 98.28 45.6583 98.28 45.7301V55.8701C98.28 55.9419 98.2218 56.0001 98.15 56.0001H96.85C96.7782 56.0001 96.72 55.9419 96.72 55.8701V45.7301ZM93.86 48.3301C93.86 48.2583 93.9182 48.2001 93.99 48.2001H95.29C95.3618 48.2001 95.42 48.2583 95.42 48.3301V55.8701C95.42 55.9419 95.3618 56.0001 95.29 56.0001H93.99C93.9182 56.0001 93.86 55.9419 93.86 55.8701V48.3301ZM79.56 54.4401C80.8523 54.4401 81.9 53.3924 81.9 52.1001C81.9 50.8078 80.8523 49.7601 79.56 49.7601C78.2676 49.7601 77.22 50.8078 77.22 52.1001C77.22 53.3924 78.2676 54.4401 79.56 54.4401ZM79.56 56.0001C81.7139 56.0001 83.46 54.254 83.46 52.1001C83.46 49.9462 81.7139 48.2001 79.56 48.2001C77.4061 48.2001 75.66 49.9462 75.66 52.1001C75.66 54.254 77.4061 56.0001 79.56 56.0001ZM67.145 49.7601C66.3911 49.7601 65.78 50.3712 65.78 51.1251V55.9221C65.78 55.9652 65.745 56.0001 65.702 56.0001H64.298C64.2549 56.0001 64.22 55.9652 64.22 55.9221V51.1251C64.22 49.5097 65.5295 48.2001 67.145 48.2001C67.9622 48.2001 68.7012 48.5353 69.2319 49.0756C69.2637 49.108 69.3162 49.108 69.348 49.0756C69.8788 48.5353 70.6177 48.2001 71.435 48.2001C73.0504 48.2001 74.36 49.5097 74.36 51.1251V55.9221C74.36 55.9652 74.3251 56.0001 74.282 56.0001H72.878C72.8349 56.0001 72.8 55.9652 72.8 55.9221V51.1251C72.8 50.3712 72.1888 49.7601 71.435 49.7601C70.6811 49.7601 70.07 50.3712 70.07 51.1251V55.9221C70.07 55.9652 70.035 56.0001 69.992 56.0001H68.588C68.5449 56.0001 68.51 55.9652 68.51 55.9221V51.1251C68.51 50.3712 67.8988 49.7601 67.145 49.7601Z" fill="#1F1F1F"/>
</svg>
